<svg width="24" height="24" viewBox="0 0 24 24" fill="none" xmlns="http://www.w3.org/2000/svg">
<path fill-rule="evenodd" clip-rule="evenodd" d="M12 2C17.514 2 22 6.486 22 12C22 17.514 17.514 22 12 22C6.486 22 2 17.514 2 12C2 6.486 6.486 2 12 2ZM12 3C7.037 3 3 7.037 3 12C3 16.963 7.037 21 12 21C16.963 21 21 16.963 21 12C21 7.037 16.963 3 12 3ZM16.0014 7.2301C16.1504 6.9961 16.4594 6.9321 16.6924 7.0781C16.9244 7.2271 16.9934 7.5361 16.8444 7.7691L11.6914 15.8401C11.6084 15.9691 11.4714 16.0531 11.3194 16.0671C11.3024 16.0691 11.2864 16.0701 11.2694 16.0701C11.1344 16.0701 11.0044 16.0161 10.9094 15.9171L7.1394 12.0011C6.9484 11.8021 6.9544 11.4851 7.1534 11.2941C7.3514 11.1041 7.6684 11.1091 7.8604 11.3071L11.1894 14.7661L16.0014 7.2301Z" fill="#EC0000"/>
</svg>
