<svg width="24" height="24" viewBox="0 0 24 24" fill="none" xmlns="http://www.w3.org/2000/svg">
<path fill-rule="evenodd" clip-rule="evenodd" d="M17.995 5C18.2614 5 18.5168 5.10644 18.7044 5.29568C19.0918 5.68555 19.0918 6.31521 18.7044 6.70509L13.414 11.998L18.7044 17.2907C18.8936 17.4784 19 17.7339 19 18.0004C19 18.2669 18.8936 18.5224 18.7044 18.7101C18.5159 18.8972 18.2606 19.0015 17.995 19C17.7295 19.0015 17.4742 18.8972 17.2856 18.7101L11.995 13.417L6.71438 18.7001C6.52746 18.8909 6.27199 18.9989 6.00497 19C5.73938 19.0015 5.48412 18.8972 5.29555 18.7101C5.1064 18.5224 5 18.2669 5 18.0004C5 17.7339 5.1064 17.4784 5.29555 17.2907L10.58 12.003L5.29555 6.71509C4.90376 6.32313 4.90376 5.68764 5.29555 5.29568C5.68735 4.90372 6.32258 4.90372 6.71438 5.29568L12 10.583L17.2856 5.29568C17.4732 5.10644 17.7286 5 17.995 5Z" fill="#990000"/>
</svg>
