<svg width="24" height="24" viewBox="0 0 24 24" fill="none" xmlns="http://www.w3.org/2000/svg">
<path fill-rule="evenodd" clip-rule="evenodd" d="M12 2C14.6709 2 17.1826 3.04004 19.0713 4.9292C22.9697 8.82812 22.9697 15.1719 19.0713 19.0708C17.1826 20.96 14.6709 22 12 22C9.3291 22 6.81738 20.96 4.92871 19.0708C1.03027 15.1719 1.03027 8.82812 4.92871 4.9292C6.81738 3.04004 9.3291 2 12 2ZM12 3C9.5957 3 7.33594 3.93604 5.63574 5.63623C2.12695 9.14502 2.12695 14.855 5.63574 18.3638C7.33594 20.064 9.5957 21 12 21C14.4043 21 16.6641 20.064 18.3643 18.3638C21.873 14.855 21.873 9.14502 18.3643 5.63623C16.6641 3.93604 14.4043 3 12 3ZM7.75781 7.75732C7.95312 7.56201 8.26953 7.56201 8.46484 7.75732L12 11.2929L15.5352 7.75732C15.7305 7.56201 16.0469 7.56201 16.2422 7.75732C16.4375 7.95264 16.4375 8.26904 16.2422 8.46436L12.707 12L16.2422 15.5356C16.4375 15.731 16.4375 16.0474 16.2422 16.2427C16.1445 16.3403 16.0166 16.3892 15.8887 16.3892C15.7607 16.3892 15.6328 16.3403 15.5352 16.2427L12 12.7071L8.46484 16.2427C8.36719 16.3403 8.23926 16.3892 8.11133 16.3892C7.9834 16.3892 7.85547 16.3403 7.75781 16.2427C7.5625 16.0474 7.5625 15.731 7.75781 15.5356L11.293 12L7.75781 8.46436C7.5625 8.26904 7.5625 7.95264 7.75781 7.75732Z" fill="#990000"/>
</svg>
