<svg width="20" height="20" viewBox="0 0 20 20" fill="none" xmlns="http://www.w3.org/2000/svg">
<mask id="mask0" mask-type="alpha" maskUnits="userSpaceOnUse" x="0" y="0" width="20" height="20">
<path d="M10 0C15.5142 0 20 4.48584 20 10C20 15.5142 15.5142 20 10 20C4.48584 20 0 15.5142 0 10C0 4.48584 4.48584 0 10 0ZM10 1C5.0376 1 1 5.0376 1 10C1 14.9624 5.0376 19 10 19C14.9624 19 19 14.9624 19 10C19 5.0376 14.9624 1 10 1ZM10 8C10.2764 8 10.5 8.22363 10.5 8.5V15.5C10.5 15.7764 10.2764 16 10 16C9.72363 16 9.5 15.7764 9.5 15.5V8.5C9.5 8.22363 9.72363 8 10 8ZM10 4C10.2764 4 10.5 4.22363 10.5 4.5V5.5C10.5 5.77637 10.2764 6 10 6C9.72363 6 9.5 5.77637 9.5 5.5V4.5C9.5 4.22363 9.72363 4 10 4Z" fill="white"/>
</mask>
<g mask="url(#mask0)">
<path d="M10 0C15.5142 0 20 4.48584 20 10C20 15.5142 15.5142 20 10 20C4.48584 20 0 15.5142 0 10C0 4.48584 4.48584 0 10 0ZM10 1C5.0376 1 1 5.0376 1 10C1 14.9624 5.0376 19 10 19C14.9624 19 19 14.9624 19 10C19 5.0376 14.9624 1 10 1ZM10 8C10.2764 8 10.5 8.22363 10.5 8.5V15.5C10.5 15.7764 10.2764 16 10 16C9.72363 16 9.5 15.7764 9.5 15.5V8.5C9.5 8.22363 9.72363 8 10 8ZM10 4C10.2764 4 10.5 4.22363 10.5 4.5V5.5C10.5 5.77637 10.2764 6 10 6C9.72363 6 9.5 5.77637 9.5 5.5V4.5C9.5 4.22363 9.72363 4 10 4Z" fill="#EC0000"/>
</g>
</svg>
